# xmcd CD database file
#
# Track frame offsets:
#	150
#	19042
#	35161
#	52542
#	65787
#	83780
#	98474
#	117083
#	132666
#	148220
#	162134
#	175830
#	190080
#	199281
#	215856
#
# Disc length: 3095 seconds
#
# Revision: 0
# Processed by: cddbd v1.5.1PL0 Copyright (c) Steve Scherf et al.
# Submitted via: CDex 1.40Release
#
DISCID=d80c150f
DTITLE=Suzanne Klee - cazz&traxxx
DYEAR=2000
DGENRE=Country
TTITLE0=455 Rocket
TTITLE1=Love gets me every time
TTITLE2=How does it feel
TTITLE3=Can't get enough
TTITLE4=Just when i needed you most
TTITLE5=The only thing that look good on me is you
TTITLE6=Without you
TTITLE7=Can't let go
TTITLE8=Real men
TTITLE9=I'm a woman
TTITLE10=This boots are made for walkin
TTITLE11=Drive my car
TTITLE12=I'm gonna knock on your door
TTITLE13=How will i know woh you are
TTITLE14=Speed of the sound of loneliness
EXTD=YEAR: 2000 ID3G: 2
EXTT0=
EXTT1=
EXTT2=
EXTT3=
EXTT4=
EXTT5=
EXTT6=
EXTT7=
EXTT8=
EXTT9=
EXTT10=
EXTT11=
EXTT12=
EXTT13=
EXTT14=
PLAYORDER=
